# xmcd
#
# Track frame offsets:
# 150
# 13810
# 22300
# 36198
# 42679
# 51599
# 63765
# 70669
# 82934
# 86561
# 97358
# 105868
# 114663
# 125621
# 135894
# 149959
#
# Disc length: 2187 seconds
#
#
# Revision: 0
# Processed by: cddbd v1.5.2PL0 Copyright (c) Steve Scherf et al.
# Submitted via: FreeRIP 2.945 
#
DISCID=ea088910
DTITLE=Hector Faceplant - Cry About It
DYEAR=2005
DGENRE=Black Metal
TTITLE0=jen's dream
TTITLE1=six more weeks of winter
TTITLE2=pivot or don't (dipshit)
TTITLE3=mama spider
TTITLE4=terracotta skeleton
TTITLE5=blue candy
TTITLE6=ma barker says abort everything
TTITLE7=sloe shoes
TTITLE8=ecoli
TTITLE9=i'm alone
TTITLE10=dusty particles
TTITLE11=career pants
TTITLE12=eating bad fruit in the laundry mat
TTITLE13=rosa's tortilla factory
TTITLE14=shift and shine
TTITLE15=rote
EXTD=
EXTT0=
EXTT1=
EXTT2=
EXTT3=
EXTT4=
EXTT5=
EXTT6=
EXTT7=
EXTT8=
EXTT9=
EXTT10=
EXTT11=
EXTT12=
EXTT13=
EXTT14=
EXTT15=
PLAYORDER=
